<svg width="211" height="252" viewBox="0 0 211 252" fill="none" xmlns="http://www.w3.org/2000/svg">
<path d="M3.5 7C5.433 7 7 5.433 7 3.5C7 1.567 5.433 0 3.5 0C1.567 0 0 1.567 0 3.5C0 5.433 1.567 7 3.5 7Z" fill="#EEEEEE"/>
<path d="M18 7C20.2091 7 22 5.433 22 3.5C22 1.567 20.2091 0 18 0C15.7909 0 14 1.567 14 3.5C14 5.433 15.7909 7 18 7Z" fill="#EEEEEE"/>
<path d="M32.5 7C34.433 7 36 5.433 36 3.5C36 1.567 34.433 0 32.5 0C30.567 0 29 1.567 29 3.5C29 5.433 30.567 7 32.5 7Z" fill="#EEEEEE"/>
<path d="M46.5 7C48.433 7 50 5.433 50 3.5C50 1.567 48.433 0 46.5 0C44.567 0 43 1.567 43 3.5C43 5.433 44.567 7 46.5 7Z" fill="#EEEEEE"/>
<path d="M61 7C63.2091 7 65 5.433 65 3.5C65 1.567 63.2091 0 61 0C58.7909 0 57 1.567 57 3.5C57 5.433 58.7909 7 61 7Z" fill="#EEEEEE"/>
<path d="M75.5 7C77.433 7 79 5.433 79 3.5C79 1.567 77.433 0 75.5 0C73.567 0 72 1.567 72 3.5C72 5.433 73.567 7 75.5 7Z" fill="#EEEEEE"/>
<path d="M89.5 7C91.433 7 93 5.433 93 3.5C93 1.567 91.433 0 89.5 0C87.567 0 86 1.567 86 3.5C86 5.433 87.567 7 89.5 7Z" fill="#EEEEEE"/>
<path d="M104 7C106.209 7 108 5.433 108 3.5C108 1.567 106.209 0 104 0C101.791 0 100 1.567 100 3.5C100 5.433 101.791 7 104 7Z" fill="#EEEEEE"/>
<path d="M118.5 7C120.433 7 122 5.433 122 3.5C122 1.567 120.433 0 118.5 0C116.567 0 115 1.567 115 3.5C115 5.433 116.567 7 118.5 7Z" fill="#EEEEEE"/>
<path d="M132.5 7C134.433 7 136 5.433 136 3.5C136 1.567 134.433 0 132.5 0C130.567 0 129 1.567 129 3.5C129 5.433 130.567 7 132.5 7Z" fill="#EEEEEE"/>
<path d="M147.5 7C149.433 7 151 5.433 151 3.5C151 1.567 149.433 0 147.5 0C145.567 0 144 1.567 144 3.5C144 5.433 145.567 7 147.5 7Z" fill="#EEEEEE"/>
<path d="M161.5 7C163.433 7 165 5.433 165 3.5C165 1.567 163.433 0 161.5 0C159.567 0 158 1.567 158 3.5C158 5.433 159.567 7 161.5 7Z" fill="#EEEEEE"/>
<path d="M175.5 7C177.433 7 179 5.433 179 3.5C179 1.567 177.433 0 175.5 0C173.567 0 172 1.567 172 3.5C172 5.433 173.567 7 175.5 7Z" fill="#EEEEEE"/>
<path d="M190.5 7C192.433 7 194 5.433 194 3.5C194 1.567 192.433 0 190.5 0C188.567 0 187 1.567 187 3.5C187 5.433 188.567 7 190.5 7Z" fill="#EEEEEE"/>
<path d="M204.5 7C206.433 7 208 5.433 208 3.5C208 1.567 206.433 0 204.5 0C202.567 0 201 1.567 201 3.5C201 5.433 202.567 7 204.5 7Z" fill="#EEEEEE"/>
<path d="M3.5 22C5.433 22 7 20.2091 7 18C7 15.7909 5.433 14 3.5 14C1.567 14 0 15.7909 0 18C0 20.2091 1.567 22 3.5 22Z" fill="#EEEEEE"/>
<path d="M18 22C20.2091 22 22 20.2091 22 18C22 15.7909 20.2091 14 18 14C15.7909 14 14 15.7909 14 18C14 20.2091 15.7909 22 18 22Z" fill="#EEEEEE"/>
<path d="M32.5 22C34.433 22 36 20.2091 36 18C36 15.7909 34.433 14 32.5 14C30.567 14 29 15.7909 29 18C29 20.2091 30.567 22 32.5 22Z" fill="#EEEEEE"/>
<path d="M46.5 22C48.433 22 50 20.2091 50 18C50 15.7909 48.433 14 46.5 14C44.567 14 43 15.7909 43 18C43 20.2091 44.567 22 46.5 22Z" fill="#EEEEEE"/>
<path d="M61 22C63.2091 22 65 20.2091 65 18C65 15.7909 63.2091 14 61 14C58.7909 14 57 15.7909 57 18C57 20.2091 58.7909 22 61 22Z" fill="#EEEEEE"/>
<path d="M75.5 22C77.433 22 79 20.2091 79 18C79 15.7909 77.433 14 75.5 14C73.567 14 72 15.7909 72 18C72 20.2091 73.567 22 75.5 22Z" fill="#EEEEEE"/>
<path d="M89.5 22C91.433 22 93 20.2091 93 18C93 15.7909 91.433 14 89.5 14C87.567 14 86 15.7909 86 18C86 20.2091 87.567 22 89.5 22Z" fill="#EEEEEE"/>
<path d="M104 22C106.209 22 108 20.2091 108 18C108 15.7909 106.209 14 104 14C101.791 14 100 15.7909 100 18C100 20.2091 101.791 22 104 22Z" fill="#EEEEEE"/>
<path d="M118.5 22C120.433 22 122 20.2091 122 18C122 15.7909 120.433 14 118.5 14C116.567 14 115 15.7909 115 18C115 20.2091 116.567 22 118.5 22Z" fill="#EEEEEE"/>
<path d="M132.5 22C134.433 22 136 20.2091 136 18C136 15.7909 134.433 14 132.5 14C130.567 14 129 15.7909 129 18C129 20.2091 130.567 22 132.5 22Z" fill="#EEEEEE"/>
<path d="M147.5 22C149.433 22 151 20.2091 151 18C151 15.7909 149.433 14 147.5 14C145.567 14 144 15.7909 144 18C144 20.2091 145.567 22 147.5 22Z" fill="#EEEEEE"/>
<path d="M161.5 22C163.433 22 165 20.2091 165 18C165 15.7909 163.433 14 161.5 14C159.567 14 158 15.7909 158 18C158 20.2091 159.567 22 161.5 22Z" fill="#EEEEEE"/>
<path d="M175.5 22C177.433 22 179 20.2091 179 18C179 15.7909 177.433 14 175.5 14C173.567 14 172 15.7909 172 18C172 20.2091 173.567 22 175.5 22Z" fill="#EEEEEE"/>
<path d="M190.5 22C192.433 22 194 20.2091 194 18C194 15.7909 192.433 14 190.5 14C188.567 14 187 15.7909 187 18C187 20.2091 188.567 22 190.5 22Z" fill="#EEEEEE"/>
<path d="M204.5 22C206.433 22 208 20.2091 208 18C208 15.7909 206.433 14 204.5 14C202.567 14 201 15.7909 201 18C201 20.2091 202.567 22 204.5 22Z" fill="#EEEEEE"/>
<path d="M3.5 36C5.433 36 7 34.433 7 32.5C7 30.567 5.433 29 3.5 29C1.567 29 0 30.567 0 32.5C0 34.433 1.567 36 3.5 36Z" fill="#EEEEEE"/>
<path d="M18 36C20.2091 36 22 34.433 22 32.5C22 30.567 20.2091 29 18 29C15.7909 29 14 30.567 14 32.5C14 34.433 15.7909 36 18 36Z" fill="#EEEEEE"/>
<path d="M32.5 36C34.433 36 36 34.433 36 32.5C36 30.567 34.433 29 32.5 29C30.567 29 29 30.567 29 32.5C29 34.433 30.567 36 32.5 36Z" fill="#EEEEEE"/>
<path d="M46.5 36C48.433 36 50 34.433 50 32.5C50 30.567 48.433 29 46.5 29C44.567 29 43 30.567 43 32.5C43 34.433 44.567 36 46.5 36Z" fill="#EEEEEE"/>
<path d="M61 36C63.2091 36 65 34.433 65 32.5C65 30.567 63.2091 29 61 29C58.7909 29 57 30.567 57 32.5C57 34.433 58.7909 36 61 36Z" fill="#EEEEEE"/>
<path d="M75.5 36C77.433 36 79 34.433 79 32.5C79 30.567 77.433 29 75.5 29C73.567 29 72 30.567 72 32.5C72 34.433 73.567 36 75.5 36Z" fill="#EEEEEE"/>
<path d="M89.5 36C91.433 36 93 34.433 93 32.5C93 30.567 91.433 29 89.5 29C87.567 29 86 30.567 86 32.5C86 34.433 87.567 36 89.5 36Z" fill="#EEEEEE"/>
<path d="M104 36C106.209 36 108 34.433 108 32.5C108 30.567 106.209 29 104 29C101.791 29 100 30.567 100 32.5C100 34.433 101.791 36 104 36Z" fill="#EEEEEE"/>
<path d="M118.5 36C120.433 36 122 34.433 122 32.5C122 30.567 120.433 29 118.5 29C116.567 29 115 30.567 115 32.5C115 34.433 116.567 36 118.5 36Z" fill="#EEEEEE"/>
<path d="M132.5 36C134.433 36 136 34.433 136 32.5C136 30.567 134.433 29 132.5 29C130.567 29 129 30.567 129 32.5C129 34.433 130.567 36 132.5 36Z" fill="#EEEEEE"/>
<path d="M147.5 36C149.433 36 151 34.433 151 32.5C151 30.567 149.433 29 147.5 29C145.567 29 144 30.567 144 32.5C144 34.433 145.567 36 147.5 36Z" fill="#EEEEEE"/>
<path d="M161.5 36C163.433 36 165 34.433 165 32.5C165 30.567 163.433 29 161.5 29C159.567 29 158 30.567 158 32.5C158 34.433 159.567 36 161.5 36Z" fill="#EEEEEE"/>
<path d="M175.5 36C177.433 36 179 34.433 179 32.5C179 30.567 177.433 29 175.5 29C173.567 29 172 30.567 172 32.5C172 34.433 173.567 36 175.5 36Z" fill="#EEEEEE"/>
<path d="M190.5 36C192.433 36 194 34.433 194 32.5C194 30.567 192.433 29 190.5 29C188.567 29 187 30.567 187 32.5C187 34.433 188.567 36 190.5 36Z" fill="#EEEEEE"/>
<path d="M204.5 36C206.433 36 208 34.433 208 32.5C208 30.567 206.433 29 204.5 29C202.567 29 201 30.567 201 32.5C201 34.433 202.567 36 204.5 36Z" fill="#EEEEEE"/>
<path d="M3.5 50C5.433 50 7 48.433 7 46.5C7 44.567 5.433 43 3.5 43C1.567 43 0 44.567 0 46.5C0 48.433 1.567 50 3.5 50Z" fill="#EEEEEE"/>
<path d="M18 50C20.2091 50 22 48.433 22 46.5C22 44.567 20.2091 43 18 43C15.7909 43 14 44.567 14 46.5C14 48.433 15.7909 50 18 50Z" fill="#EEEEEE"/>
<path d="M32.5 50C34.433 50 36 48.433 36 46.5C36 44.567 34.433 43 32.5 43C30.567 43 29 44.567 29 46.5C29 48.433 30.567 50 32.5 50Z" fill="#EEEEEE"/>
<path d="M46.5 50C48.433 50 50 48.433 50 46.5C50 44.567 48.433 43 46.5 43C44.567 43 43 44.567 43 46.5C43 48.433 44.567 50 46.5 50Z" fill="#EEEEEE"/>
<path d="M61 50C63.2091 50 65 48.433 65 46.5C65 44.567 63.2091 43 61 43C58.7909 43 57 44.567 57 46.5C57 48.433 58.7909 50 61 50Z" fill="#EEEEEE"/>
<path d="M75.5 50C77.433 50 79 48.433 79 46.5C79 44.567 77.433 43 75.5 43C73.567 43 72 44.567 72 46.5C72 48.433 73.567 50 75.5 50Z" fill="#EEEEEE"/>
<path d="M89.5 50C91.433 50 93 48.433 93 46.5C93 44.567 91.433 43 89.5 43C87.567 43 86 44.567 86 46.5C86 48.433 87.567 50 89.5 50Z" fill="#EEEEEE"/>
<path d="M104 50C106.209 50 108 48.433 108 46.5C108 44.567 106.209 43 104 43C101.791 43 100 44.567 100 46.5C100 48.433 101.791 50 104 50Z" fill="#EEEEEE"/>
<path d="M118.5 50C120.433 50 122 48.433 122 46.5C122 44.567 120.433 43 118.5 43C116.567 43 115 44.567 115 46.5C115 48.433 116.567 50 118.5 50Z" fill="#EEEEEE"/>
<path d="M132.5 50C134.433 50 136 48.433 136 46.5C136 44.567 134.433 43 132.5 43C130.567 43 129 44.567 129 46.5C129 48.433 130.567 50 132.5 50Z" fill="#EEEEEE"/>
<path d="M147.5 50C149.433 50 151 48.433 151 46.5C151 44.567 149.433 43 147.5 43C145.567 43 144 44.567 144 46.5C144 48.433 145.567 50 147.5 50Z" fill="#EEEEEE"/>
<path d="M161.5 50C163.433 50 165 48.433 165 46.5C165 44.567 163.433 43 161.5 43C159.567 43 158 44.567 158 46.5C158 48.433 159.567 50 161.5 50Z" fill="#EEEEEE"/>
<path d="M175.5 50C177.433 50 179 48.433 179 46.5C179 44.567 177.433 43 175.5 43C173.567 43 172 44.567 172 46.5C172 48.433 173.567 50 175.5 50Z" fill="#EEEEEE"/>
<path d="M190.5 50C192.433 50 194 48.433 194 46.5C194 44.567 192.433 43 190.5 43C188.567 43 187 44.567 187 46.5C187 48.433 188.567 50 190.5 50Z" fill="#EEEEEE"/>
<path d="M204.5 50C206.433 50 208 48.433 208 46.5C208 44.567 206.433 43 204.5 43C202.567 43 201 44.567 201 46.5C201 48.433 202.567 50 204.5 50Z" fill="#EEEEEE"/>
<path d="M3.5 65C5.433 65 7 63.2091 7 61C7 58.7909 5.433 57 3.5 57C1.567 57 0 58.7909 0 61C0 63.2091 1.567 65 3.5 65Z" fill="#EEEEEE"/>
<path d="M18 65C20.2091 65 22 63.2091 22 61C22 58.7909 20.2091 57 18 57C15.7909 57 14 58.7909 14 61C14 63.2091 15.7909 65 18 65Z" fill="#EEEEEE"/>
<path d="M32.5 65C34.433 65 36 63.2091 36 61C36 58.7909 34.433 57 32.5 57C30.567 57 29 58.7909 29 61C29 63.2091 30.567 65 32.5 65Z" fill="#EEEEEE"/>
<path d="M46.5 65C48.433 65 50 63.2091 50 61C50 58.7909 48.433 57 46.5 57C44.567 57 43 58.7909 43 61C43 63.2091 44.567 65 46.5 65Z" fill="#EEEEEE"/>
<path d="M61 65C63.2091 65 65 63.2091 65 61C65 58.7909 63.2091 57 61 57C58.7909 57 57 58.7909 57 61C57 63.2091 58.7909 65 61 65Z" fill="#EEEEEE"/>
<path d="M75.5 65C77.433 65 79 63.2091 79 61C79 58.7909 77.433 57 75.5 57C73.567 57 72 58.7909 72 61C72 63.2091 73.567 65 75.5 65Z" fill="#EEEEEE"/>
<path d="M89.5 65C91.433 65 93 63.2091 93 61C93 58.7909 91.433 57 89.5 57C87.567 57 86 58.7909 86 61C86 63.2091 87.567 65 89.5 65Z" fill="#EEEEEE"/>
<path d="M104 65C106.209 65 108 63.2091 108 61C108 58.7909 106.209 57 104 57C101.791 57 100 58.7909 100 61C100 63.2091 101.791 65 104 65Z" fill="#EEEEEE"/>
<path d="M118.5 65C120.433 65 122 63.2091 122 61C122 58.7909 120.433 57 118.5 57C116.567 57 115 58.7909 115 61C115 63.2091 116.567 65 118.5 65Z" fill="#EEEEEE"/>
<path d="M132.5 65C134.433 65 136 63.2091 136 61C136 58.7909 134.433 57 132.5 57C130.567 57 129 58.7909 129 61C129 63.2091 130.567 65 132.5 65Z" fill="#EEEEEE"/>
<path d="M147.5 65C149.433 65 151 63.2091 151 61C151 58.7909 149.433 57 147.5 57C145.567 57 144 58.7909 144 61C144 63.2091 145.567 65 147.5 65Z" fill="#EEEEEE"/>
<path d="M161.5 65C163.433 65 165 63.2091 165 61C165 58.7909 163.433 57 161.5 57C159.567 57 158 58.7909 158 61C158 63.2091 159.567 65 161.5 65Z" fill="#EEEEEE"/>
<path d="M175.5 65C177.433 65 179 63.2091 179 61C179 58.7909 177.433 57 175.5 57C173.567 57 172 58.7909 172 61C172 63.2091 173.567 65 175.5 65Z" fill="#EEEEEE"/>
<path d="M190.5 65C192.433 65 194 63.2091 194 61C194 58.7909 192.433 57 190.5 57C188.567 57 187 58.7909 187 61C187 63.2091 188.567 65 190.5 65Z" fill="#EEEEEE"/>
<path d="M204.5 65C206.433 65 208 63.2091 208 61C208 58.7909 206.433 57 204.5 57C202.567 57 201 58.7909 201 61C201 63.2091 202.567 65 204.5 65Z" fill="#EEEEEE"/>
<path d="M3.5 79C5.433 79 7 77.433 7 75.5C7 73.567 5.433 72 3.5 72C1.567 72 0 73.567 0 75.5C0 77.433 1.567 79 3.5 79Z" fill="#EEEEEE"/>
<path d="M18 79C20.2091 79 22 77.433 22 75.5C22 73.567 20.2091 72 18 72C15.7909 72 14 73.567 14 75.5C14 77.433 15.7909 79 18 79Z" fill="#EEEEEE"/>
<path d="M32.5 79C34.433 79 36 77.433 36 75.5C36 73.567 34.433 72 32.5 72C30.567 72 29 73.567 29 75.5C29 77.433 30.567 79 32.5 79Z" fill="#EEEEEE"/>
<path d="M46.5 79C48.433 79 50 77.433 50 75.5C50 73.567 48.433 72 46.5 72C44.567 72 43 73.567 43 75.5C43 77.433 44.567 79 46.5 79Z" fill="#EEEEEE"/>
<path d="M61 79C63.2091 79 65 77.433 65 75.5C65 73.567 63.2091 72 61 72C58.7909 72 57 73.567 57 75.5C57 77.433 58.7909 79 61 79Z" fill="#EEEEEE"/>
<path d="M75.5 79C77.433 79 79 77.433 79 75.5C79 73.567 77.433 72 75.5 72C73.567 72 72 73.567 72 75.5C72 77.433 73.567 79 75.5 79Z" fill="#EEEEEE"/>
<path d="M89.5 79C91.433 79 93 77.433 93 75.5C93 73.567 91.433 72 89.5 72C87.567 72 86 73.567 86 75.5C86 77.433 87.567 79 89.5 79Z" fill="#EEEEEE"/>
<path d="M104 79C106.209 79 108 77.433 108 75.5C108 73.567 106.209 72 104 72C101.791 72 100 73.567 100 75.5C100 77.433 101.791 79 104 79Z" fill="#EEEEEE"/>
<path d="M118.5 79C120.433 79 122 77.433 122 75.5C122 73.567 120.433 72 118.5 72C116.567 72 115 73.567 115 75.5C115 77.433 116.567 79 118.5 79Z" fill="#EEEEEE"/>
<path d="M132.5 79C134.433 79 136 77.433 136 75.5C136 73.567 134.433 72 132.5 72C130.567 72 129 73.567 129 75.5C129 77.433 130.567 79 132.5 79Z" fill="#EEEEEE"/>
<path d="M147.5 79C149.433 79 151 77.433 151 75.5C151 73.567 149.433 72 147.5 72C145.567 72 144 73.567 144 75.5C144 77.433 145.567 79 147.5 79Z" fill="#EEEEEE"/>
<path d="M161.5 79C163.433 79 165 77.433 165 75.5C165 73.567 163.433 72 161.5 72C159.567 72 158 73.567 158 75.5C158 77.433 159.567 79 161.5 79Z" fill="#EEEEEE"/>
<path d="M175.5 79C177.433 79 179 77.433 179 75.5C179 73.567 177.433 72 175.5 72C173.567 72 172 73.567 172 75.5C172 77.433 173.567 79 175.5 79Z" fill="#EEEEEE"/>
<path d="M190.5 79C192.433 79 194 77.433 194 75.5C194 73.567 192.433 72 190.5 72C188.567 72 187 73.567 187 75.5C187 77.433 188.567 79 190.5 79Z" fill="#EEEEEE"/>
<path d="M204.5 79C206.433 79 208 77.433 208 75.5C208 73.567 206.433 72 204.5 72C202.567 72 201 73.567 201 75.5C201 77.433 202.567 79 204.5 79Z" fill="#EEEEEE"/>
<path d="M3.5 93C5.433 93 7 91.433 7 89.5C7 87.567 5.433 86 3.5 86C1.567 86 0 87.567 0 89.5C0 91.433 1.567 93 3.5 93Z" fill="#EEEEEE"/>
<path d="M18 93C20.2091 93 22 91.433 22 89.5C22 87.567 20.2091 86 18 86C15.7909 86 14 87.567 14 89.5C14 91.433 15.7909 93 18 93Z" fill="#EEEEEE"/>
<path d="M32.5 93C34.433 93 36 91.433 36 89.5C36 87.567 34.433 86 32.5 86C30.567 86 29 87.567 29 89.5C29 91.433 30.567 93 32.5 93Z" fill="#EEEEEE"/>
<path d="M46.5 93C48.433 93 50 91.433 50 89.5C50 87.567 48.433 86 46.5 86C44.567 86 43 87.567 43 89.5C43 91.433 44.567 93 46.5 93Z" fill="#EEEEEE"/>
<path d="M61 93C63.2091 93 65 91.433 65 89.5C65 87.567 63.2091 86 61 86C58.7909 86 57 87.567 57 89.5C57 91.433 58.7909 93 61 93Z" fill="#EEEEEE"/>
<path d="M75.5 93C77.433 93 79 91.433 79 89.5C79 87.567 77.433 86 75.5 86C73.567 86 72 87.567 72 89.5C72 91.433 73.567 93 75.5 93Z" fill="#EEEEEE"/>
<path d="M89.5 93C91.433 93 93 91.433 93 89.5C93 87.567 91.433 86 89.5 86C87.567 86 86 87.567 86 89.5C86 91.433 87.567 93 89.5 93Z" fill="#EEEEEE"/>
<path d="M104 93C106.209 93 108 91.433 108 89.5C108 87.567 106.209 86 104 86C101.791 86 100 87.567 100 89.5C100 91.433 101.791 93 104 93Z" fill="#EEEEEE"/>
<path d="M118.5 93C120.433 93 122 91.433 122 89.5C122 87.567 120.433 86 118.5 86C116.567 86 115 87.567 115 89.5C115 91.433 116.567 93 118.5 93Z" fill="#EEEEEE"/>
<path d="M132.5 93C134.433 93 136 91.433 136 89.5C136 87.567 134.433 86 132.5 86C130.567 86 129 87.567 129 89.5C129 91.433 130.567 93 132.5 93Z" fill="#EEEEEE"/>
<path d="M147.5 93C149.433 93 151 91.433 151 89.5C151 87.567 149.433 86 147.5 86C145.567 86 144 87.567 144 89.5C144 91.433 145.567 93 147.5 93Z" fill="#EEEEEE"/>
<path d="M161.5 93C163.433 93 165 91.433 165 89.5C165 87.567 163.433 86 161.5 86C159.567 86 158 87.567 158 89.5C158 91.433 159.567 93 161.5 93Z" fill="#EEEEEE"/>
<path d="M175.5 93C177.433 93 179 91.433 179 89.5C179 87.567 177.433 86 175.5 86C173.567 86 172 87.567 172 89.5C172 91.433 173.567 93 175.5 93Z" fill="#EEEEEE"/>
<path d="M190.5 93C192.433 93 194 91.433 194 89.5C194 87.567 192.433 86 190.5 86C188.567 86 187 87.567 187 89.5C187 91.433 188.567 93 190.5 93Z" fill="#EEEEEE"/>
<path d="M204.5 93C206.433 93 208 91.433 208 89.5C208 87.567 206.433 86 204.5 86C202.567 86 201 87.567 201 89.5C201 91.433 202.567 93 204.5 93Z" fill="#EEEEEE"/>
<path d="M3.5 108C5.433 108 7 106.209 7 104C7 101.791 5.433 100 3.5 100C1.567 100 0 101.791 0 104C0 106.209 1.567 108 3.5 108Z" fill="#EEEEEE"/>
<path d="M18 108C20.2091 108 22 106.209 22 104C22 101.791 20.2091 100 18 100C15.7909 100 14 101.791 14 104C14 106.209 15.7909 108 18 108Z" fill="#EEEEEE"/>
<path d="M32.5 108C34.433 108 36 106.209 36 104C36 101.791 34.433 100 32.5 100C30.567 100 29 101.791 29 104C29 106.209 30.567 108 32.5 108Z" fill="#EEEEEE"/>
<path d="M46.5 108C48.433 108 50 106.209 50 104C50 101.791 48.433 100 46.5 100C44.567 100 43 101.791 43 104C43 106.209 44.567 108 46.5 108Z" fill="#EEEEEE"/>
<path d="M61 108C63.2091 108 65 106.209 65 104C65 101.791 63.2091 100 61 100C58.7909 100 57 101.791 57 104C57 106.209 58.7909 108 61 108Z" fill="#EEEEEE"/>
<path d="M75.5 108C77.433 108 79 106.209 79 104C79 101.791 77.433 100 75.5 100C73.567 100 72 101.791 72 104C72 106.209 73.567 108 75.5 108Z" fill="#EEEEEE"/>
<path d="M89.5 108C91.433 108 93 106.209 93 104C93 101.791 91.433 100 89.5 100C87.567 100 86 101.791 86 104C86 106.209 87.567 108 89.5 108Z" fill="#EEEEEE"/>
<path d="M104 108C106.209 108 108 106.209 108 104C108 101.791 106.209 100 104 100C101.791 100 100 101.791 100 104C100 106.209 101.791 108 104 108Z" fill="#EEEEEE"/>
<path d="M118.5 108C120.433 108 122 106.209 122 104C122 101.791 120.433 100 118.5 100C116.567 100 115 101.791 115 104C115 106.209 116.567 108 118.5 108Z" fill="#EEEEEE"/>
<path d="M132.5 108C134.433 108 136 106.209 136 104C136 101.791 134.433 100 132.5 100C130.567 100 129 101.791 129 104C129 106.209 130.567 108 132.5 108Z" fill="#EEEEEE"/>
<path d="M147.5 108C149.433 108 151 106.209 151 104C151 101.791 149.433 100 147.5 100C145.567 100 144 101.791 144 104C144 106.209 145.567 108 147.5 108Z" fill="#EEEEEE"/>
<path d="M161.5 108C163.433 108 165 106.209 165 104C165 101.791 163.433 100 161.5 100C159.567 100 158 101.791 158 104C158 106.209 159.567 108 161.5 108Z" fill="#EEEEEE"/>
<path d="M175.5 108C177.433 108 179 106.209 179 104C179 101.791 177.433 100 175.5 100C173.567 100 172 101.791 172 104C172 106.209 173.567 108 175.5 108Z" fill="#EEEEEE"/>
<path d="M190.5 108C192.433 108 194 106.209 194 104C194 101.791 192.433 100 190.5 100C188.567 100 187 101.791 187 104C187 106.209 188.567 108 190.5 108Z" fill="#EEEEEE"/>
<path d="M204.5 108C206.433 108 208 106.209 208 104C208 101.791 206.433 100 204.5 100C202.567 100 201 101.791 201 104C201 106.209 202.567 108 204.5 108Z" fill="#EEEEEE"/>
<path d="M3.5 122C5.433 122 7 120.433 7 118.5C7 116.567 5.433 115 3.5 115C1.567 115 0 116.567 0 118.5C0 120.433 1.567 122 3.5 122Z" fill="#EEEEEE"/>
<path d="M18 122C20.2091 122 22 120.433 22 118.5C22 116.567 20.2091 115 18 115C15.7909 115 14 116.567 14 118.5C14 120.433 15.7909 122 18 122Z" fill="#EEEEEE"/>
<path d="M32.5 122C34.433 122 36 120.433 36 118.5C36 116.567 34.433 115 32.5 115C30.567 115 29 116.567 29 118.5C29 120.433 30.567 122 32.5 122Z" fill="#EEEEEE"/>
<path d="M46.5 122C48.433 122 50 120.433 50 118.5C50 116.567 48.433 115 46.5 115C44.567 115 43 116.567 43 118.5C43 120.433 44.567 122 46.5 122Z" fill="#EEEEEE"/>
<path d="M61 122C63.2091 122 65 120.433 65 118.5C65 116.567 63.2091 115 61 115C58.7909 115 57 116.567 57 118.5C57 120.433 58.7909 122 61 122Z" fill="#EEEEEE"/>
<path d="M75.5 122C77.433 122 79 120.433 79 118.5C79 116.567 77.433 115 75.5 115C73.567 115 72 116.567 72 118.5C72 120.433 73.567 122 75.5 122Z" fill="#EEEEEE"/>
<path d="M89.5 122C91.433 122 93 120.433 93 118.5C93 116.567 91.433 115 89.5 115C87.567 115 86 116.567 86 118.5C86 120.433 87.567 122 89.5 122Z" fill="#EEEEEE"/>
<path d="M104 122C106.209 122 108 120.433 108 118.5C108 116.567 106.209 115 104 115C101.791 115 100 116.567 100 118.5C100 120.433 101.791 122 104 122Z" fill="#EEEEEE"/>
<path d="M118.5 122C120.433 122 122 120.433 122 118.5C122 116.567 120.433 115 118.5 115C116.567 115 115 116.567 115 118.5C115 120.433 116.567 122 118.5 122Z" fill="#EEEEEE"/>
<path d="M132.5 122C134.433 122 136 120.433 136 118.5C136 116.567 134.433 115 132.5 115C130.567 115 129 116.567 129 118.5C129 120.433 130.567 122 132.5 122Z" fill="#EEEEEE"/>
<path d="M147.5 122C149.433 122 151 120.433 151 118.5C151 116.567 149.433 115 147.5 115C145.567 115 144 116.567 144 118.5C144 120.433 145.567 122 147.5 122Z" fill="#EEEEEE"/>
<path d="M161.5 122C163.433 122 165 120.433 165 118.5C165 116.567 163.433 115 161.5 115C159.567 115 158 116.567 158 118.5C158 120.433 159.567 122 161.5 122Z" fill="#EEEEEE"/>
<path d="M175.5 122C177.433 122 179 120.433 179 118.5C179 116.567 177.433 115 175.5 115C173.567 115 172 116.567 172 118.5C172 120.433 173.567 122 175.5 122Z" fill="#EEEEEE"/>
<path d="M190.5 122C192.433 122 194 120.433 194 118.5C194 116.567 192.433 115 190.5 115C188.567 115 187 116.567 187 118.5C187 120.433 188.567 122 190.5 122Z" fill="#EEEEEE"/>
<path d="M204.5 122C206.433 122 208 120.433 208 118.5C208 116.567 206.433 115 204.5 115C202.567 115 201 116.567 201 118.5C201 120.433 202.567 122 204.5 122Z" fill="#EEEEEE"/>
<path d="M3.5 136C5.433 136 7 134.433 7 132.5C7 130.567 5.433 129 3.5 129C1.567 129 0 130.567 0 132.5C0 134.433 1.567 136 3.5 136Z" fill="#EEEEEE"/>
<path d="M18 136C20.2091 136 22 134.433 22 132.5C22 130.567 20.2091 129 18 129C15.7909 129 14 130.567 14 132.5C14 134.433 15.7909 136 18 136Z" fill="#EEEEEE"/>
<path d="M32.5 136C34.433 136 36 134.433 36 132.5C36 130.567 34.433 129 32.5 129C30.567 129 29 130.567 29 132.5C29 134.433 30.567 136 32.5 136Z" fill="#EEEEEE"/>
<path d="M46.5 136C48.433 136 50 134.433 50 132.5C50 130.567 48.433 129 46.5 129C44.567 129 43 130.567 43 132.5C43 134.433 44.567 136 46.5 136Z" fill="#EEEEEE"/>
<path d="M61 136C63.2091 136 65 134.433 65 132.5C65 130.567 63.2091 129 61 129C58.7909 129 57 130.567 57 132.5C57 134.433 58.7909 136 61 136Z" fill="#EEEEEE"/>
<path d="M75.5 136C77.433 136 79 134.433 79 132.5C79 130.567 77.433 129 75.5 129C73.567 129 72 130.567 72 132.5C72 134.433 73.567 136 75.5 136Z" fill="#EEEEEE"/>
<path d="M89.5 136C91.433 136 93 134.433 93 132.5C93 130.567 91.433 129 89.5 129C87.567 129 86 130.567 86 132.5C86 134.433 87.567 136 89.5 136Z" fill="#EEEEEE"/>
<path d="M104 136C106.209 136 108 134.433 108 132.5C108 130.567 106.209 129 104 129C101.791 129 100 130.567 100 132.5C100 134.433 101.791 136 104 136Z" fill="#EEEEEE"/>
<path d="M118.5 136C120.433 136 122 134.433 122 132.5C122 130.567 120.433 129 118.5 129C116.567 129 115 130.567 115 132.5C115 134.433 116.567 136 118.5 136Z" fill="#EEEEEE"/>
<path d="M132.5 136C134.433 136 136 134.433 136 132.5C136 130.567 134.433 129 132.5 129C130.567 129 129 130.567 129 132.5C129 134.433 130.567 136 132.5 136Z" fill="#EEEEEE"/>
<path d="M147.5 136C149.433 136 151 134.433 151 132.5C151 130.567 149.433 129 147.5 129C145.567 129 144 130.567 144 132.5C144 134.433 145.567 136 147.5 136Z" fill="#EEEEEE"/>
<path d="M161.5 136C163.433 136 165 134.433 165 132.5C165 130.567 163.433 129 161.5 129C159.567 129 158 130.567 158 132.5C158 134.433 159.567 136 161.5 136Z" fill="#EEEEEE"/>
<path d="M175.5 136C177.433 136 179 134.433 179 132.5C179 130.567 177.433 129 175.5 129C173.567 129 172 130.567 172 132.5C172 134.433 173.567 136 175.5 136Z" fill="#EEEEEE"/>
<path d="M190.5 136C192.433 136 194 134.433 194 132.5C194 130.567 192.433 129 190.5 129C188.567 129 187 130.567 187 132.5C187 134.433 188.567 136 190.5 136Z" fill="#EEEEEE"/>
<path d="M204.5 136C206.433 136 208 134.433 208 132.5C208 130.567 206.433 129 204.5 129C202.567 129 201 130.567 201 132.5C201 134.433 202.567 136 204.5 136Z" fill="#EEEEEE"/>
<path d="M3.5 151C5.433 151 7 149.433 7 147.5C7 145.567 5.433 144 3.5 144C1.567 144 0 145.567 0 147.5C0 149.433 1.567 151 3.5 151Z" fill="#EEEEEE"/>
<path d="M18 151C20.2091 151 22 149.433 22 147.5C22 145.567 20.2091 144 18 144C15.7909 144 14 145.567 14 147.5C14 149.433 15.7909 151 18 151Z" fill="#EEEEEE"/>
<path d="M32.5 151C34.433 151 36 149.433 36 147.5C36 145.567 34.433 144 32.5 144C30.567 144 29 145.567 29 147.5C29 149.433 30.567 151 32.5 151Z" fill="#EEEEEE"/>
<path d="M46.5 151C48.433 151 50 149.433 50 147.5C50 145.567 48.433 144 46.5 144C44.567 144 43 145.567 43 147.5C43 149.433 44.567 151 46.5 151Z" fill="#EEEEEE"/>
<path d="M61 151C63.2091 151 65 149.433 65 147.5C65 145.567 63.2091 144 61 144C58.7909 144 57 145.567 57 147.5C57 149.433 58.7909 151 61 151Z" fill="#EEEEEE"/>
<path d="M75.5 151C77.433 151 79 149.433 79 147.5C79 145.567 77.433 144 75.5 144C73.567 144 72 145.567 72 147.5C72 149.433 73.567 151 75.5 151Z" fill="#EEEEEE"/>
<path d="M89.5 151C91.433 151 93 149.433 93 147.5C93 145.567 91.433 144 89.5 144C87.567 144 86 145.567 86 147.5C86 149.433 87.567 151 89.5 151Z" fill="#EEEEEE"/>
<path d="M104 151C106.209 151 108 149.433 108 147.5C108 145.567 106.209 144 104 144C101.791 144 100 145.567 100 147.5C100 149.433 101.791 151 104 151Z" fill="#EEEEEE"/>
<path d="M118.5 151C120.433 151 122 149.433 122 147.5C122 145.567 120.433 144 118.5 144C116.567 144 115 145.567 115 147.5C115 149.433 116.567 151 118.5 151Z" fill="#EEEEEE"/>
<path d="M132.5 151C134.433 151 136 149.433 136 147.5C136 145.567 134.433 144 132.5 144C130.567 144 129 145.567 129 147.5C129 149.433 130.567 151 132.5 151Z" fill="#EEEEEE"/>
<path d="M147.5 151C149.433 151 151 149.433 151 147.5C151 145.567 149.433 144 147.5 144C145.567 144 144 145.567 144 147.5C144 149.433 145.567 151 147.5 151Z" fill="#EEEEEE"/>
<path d="M161.5 151C163.433 151 165 149.433 165 147.5C165 145.567 163.433 144 161.5 144C159.567 144 158 145.567 158 147.5C158 149.433 159.567 151 161.5 151Z" fill="#EEEEEE"/>
<path d="M175.5 151C177.433 151 179 149.433 179 147.5C179 145.567 177.433 144 175.5 144C173.567 144 172 145.567 172 147.5C172 149.433 173.567 151 175.5 151Z" fill="#EEEEEE"/>
<path d="M190.5 151C192.433 151 194 149.433 194 147.5C194 145.567 192.433 144 190.5 144C188.567 144 187 145.567 187 147.5C187 149.433 188.567 151 190.5 151Z" fill="#EEEEEE"/>
<path d="M204.5 151C206.433 151 208 149.433 208 147.5C208 145.567 206.433 144 204.5 144C202.567 144 201 145.567 201 147.5C201 149.433 202.567 151 204.5 151Z" fill="#EEEEEE"/>
<path d="M3.5 165C5.433 165 7 163.433 7 161.5C7 159.567 5.433 158 3.5 158C1.567 158 0 159.567 0 161.5C0 163.433 1.567 165 3.5 165Z" fill="#EEEEEE"/>
<path d="M18 165C20.2091 165 22 163.433 22 161.5C22 159.567 20.2091 158 18 158C15.7909 158 14 159.567 14 161.5C14 163.433 15.7909 165 18 165Z" fill="#EEEEEE"/>
<path d="M32.5 165C34.433 165 36 163.433 36 161.5C36 159.567 34.433 158 32.5 158C30.567 158 29 159.567 29 161.5C29 163.433 30.567 165 32.5 165Z" fill="#EEEEEE"/>
<path d="M46.5 165C48.433 165 50 163.433 50 161.5C50 159.567 48.433 158 46.5 158C44.567 158 43 159.567 43 161.5C43 163.433 44.567 165 46.5 165Z" fill="#EEEEEE"/>
<path d="M61 165C63.2091 165 65 163.433 65 161.5C65 159.567 63.2091 158 61 158C58.7909 158 57 159.567 57 161.5C57 163.433 58.7909 165 61 165Z" fill="#EEEEEE"/>
<path d="M75.5 165C77.433 165 79 163.433 79 161.5C79 159.567 77.433 158 75.5 158C73.567 158 72 159.567 72 161.5C72 163.433 73.567 165 75.5 165Z" fill="#EEEEEE"/>
<path d="M89.5 165C91.433 165 93 163.433 93 161.5C93 159.567 91.433 158 89.5 158C87.567 158 86 159.567 86 161.5C86 163.433 87.567 165 89.5 165Z" fill="#EEEEEE"/>
<path d="M104 165C106.209 165 108 163.433 108 161.5C108 159.567 106.209 158 104 158C101.791 158 100 159.567 100 161.5C100 163.433 101.791 165 104 165Z" fill="#EEEEEE"/>
<path d="M118.5 165C120.433 165 122 163.433 122 161.5C122 159.567 120.433 158 118.5 158C116.567 158 115 159.567 115 161.5C115 163.433 116.567 165 118.5 165Z" fill="#EEEEEE"/>
<path d="M132.5 165C134.433 165 136 163.433 136 161.5C136 159.567 134.433 158 132.5 158C130.567 158 129 159.567 129 161.5C129 163.433 130.567 165 132.5 165Z" fill="#EEEEEE"/>
<path d="M147.5 165C149.433 165 151 163.433 151 161.5C151 159.567 149.433 158 147.5 158C145.567 158 144 159.567 144 161.5C144 163.433 145.567 165 147.5 165Z" fill="#EEEEEE"/>
<path d="M161.5 165C163.433 165 165 163.433 165 161.5C165 159.567 163.433 158 161.5 158C159.567 158 158 159.567 158 161.5C158 163.433 159.567 165 161.5 165Z" fill="#EEEEEE"/>
<path d="M175.5 165C177.433 165 179 163.433 179 161.5C179 159.567 177.433 158 175.5 158C173.567 158 172 159.567 172 161.5C172 163.433 173.567 165 175.5 165Z" fill="#EEEEEE"/>
<path d="M190.5 165C192.433 165 194 163.433 194 161.5C194 159.567 192.433 158 190.5 158C188.567 158 187 159.567 187 161.5C187 163.433 188.567 165 190.5 165Z" fill="#EEEEEE"/>
<path d="M204.5 165C206.433 165 208 163.433 208 161.5C208 159.567 206.433 158 204.5 158C202.567 158 201 159.567 201 161.5C201 163.433 202.567 165 204.5 165Z" fill="#EEEEEE"/>
<path d="M3.5 179C5.433 179 7 177.433 7 175.5C7 173.567 5.433 172 3.5 172C1.567 172 0 173.567 0 175.5C0 177.433 1.567 179 3.5 179Z" fill="#EEEEEE"/>
<path d="M18 179C20.2091 179 22 177.433 22 175.5C22 173.567 20.2091 172 18 172C15.7909 172 14 173.567 14 175.5C14 177.433 15.7909 179 18 179Z" fill="#EEEEEE"/>
<path d="M32.5 179C34.433 179 36 177.433 36 175.5C36 173.567 34.433 172 32.5 172C30.567 172 29 173.567 29 175.5C29 177.433 30.567 179 32.5 179Z" fill="#EEEEEE"/>
<path d="M46.5 179C48.433 179 50 177.433 50 175.5C50 173.567 48.433 172 46.5 172C44.567 172 43 173.567 43 175.5C43 177.433 44.567 179 46.5 179Z" fill="#EEEEEE"/>
<path d="M61 179C63.2091 179 65 177.433 65 175.5C65 173.567 63.2091 172 61 172C58.7909 172 57 173.567 57 175.5C57 177.433 58.7909 179 61 179Z" fill="#EEEEEE"/>
<path d="M75.5 179C77.433 179 79 177.433 79 175.5C79 173.567 77.433 172 75.5 172C73.567 172 72 173.567 72 175.5C72 177.433 73.567 179 75.5 179Z" fill="#EEEEEE"/>
<path d="M89.5 179C91.433 179 93 177.433 93 175.5C93 173.567 91.433 172 89.5 172C87.567 172 86 173.567 86 175.5C86 177.433 87.567 179 89.5 179Z" fill="#EEEEEE"/>
<path d="M104 179C106.209 179 108 177.433 108 175.5C108 173.567 106.209 172 104 172C101.791 172 100 173.567 100 175.5C100 177.433 101.791 179 104 179Z" fill="#EEEEEE"/>
<path d="M118.5 179C120.433 179 122 177.433 122 175.5C122 173.567 120.433 172 118.5 172C116.567 172 115 173.567 115 175.5C115 177.433 116.567 179 118.5 179Z" fill="#EEEEEE"/>
<path d="M132.5 179C134.433 179 136 177.433 136 175.5C136 173.567 134.433 172 132.5 172C130.567 172 129 173.567 129 175.5C129 177.433 130.567 179 132.5 179Z" fill="#EEEEEE"/>
<path d="M147.5 179C149.433 179 151 177.433 151 175.5C151 173.567 149.433 172 147.5 172C145.567 172 144 173.567 144 175.5C144 177.433 145.567 179 147.5 179Z" fill="#EEEEEE"/>
<path d="M161.5 179C163.433 179 165 177.433 165 175.5C165 173.567 163.433 172 161.5 172C159.567 172 158 173.567 158 175.5C158 177.433 159.567 179 161.5 179Z" fill="#EEEEEE"/>
<path d="M175.5 179C177.433 179 179 177.433 179 175.5C179 173.567 177.433 172 175.5 172C173.567 172 172 173.567 172 175.5C172 177.433 173.567 179 175.5 179Z" fill="#EEEEEE"/>
<path d="M190.5 179C192.433 179 194 177.433 194 175.5C194 173.567 192.433 172 190.5 172C188.567 172 187 173.567 187 175.5C187 177.433 188.567 179 190.5 179Z" fill="#EEEEEE"/>
<path d="M204.5 179C206.433 179 208 177.433 208 175.5C208 173.567 206.433 172 204.5 172C202.567 172 201 173.567 201 175.5C201 177.433 202.567 179 204.5 179Z" fill="#EEEEEE"/>
<path d="M3.5 194C5.433 194 7 192.433 7 190.5C7 188.567 5.433 187 3.5 187C1.567 187 0 188.567 0 190.5C0 192.433 1.567 194 3.5 194Z" fill="#EEEEEE"/>
<path d="M18 194C20.2091 194 22 192.433 22 190.5C22 188.567 20.2091 187 18 187C15.7909 187 14 188.567 14 190.5C14 192.433 15.7909 194 18 194Z" fill="#EEEEEE"/>
<path d="M32.5 194C34.433 194 36 192.433 36 190.5C36 188.567 34.433 187 32.5 187C30.567 187 29 188.567 29 190.5C29 192.433 30.567 194 32.5 194Z" fill="#EEEEEE"/>
<path d="M46.5 194C48.433 194 50 192.433 50 190.5C50 188.567 48.433 187 46.5 187C44.567 187 43 188.567 43 190.5C43 192.433 44.567 194 46.5 194Z" fill="#EEEEEE"/>
<path d="M61 194C63.2091 194 65 192.433 65 190.5C65 188.567 63.2091 187 61 187C58.7909 187 57 188.567 57 190.5C57 192.433 58.7909 194 61 194Z" fill="#EEEEEE"/>
<path d="M75.5 194C77.433 194 79 192.433 79 190.5C79 188.567 77.433 187 75.5 187C73.567 187 72 188.567 72 190.5C72 192.433 73.567 194 75.5 194Z" fill="#EEEEEE"/>
<path d="M89.5 194C91.433 194 93 192.433 93 190.5C93 188.567 91.433 187 89.5 187C87.567 187 86 188.567 86 190.5C86 192.433 87.567 194 89.5 194Z" fill="#EEEEEE"/>
<path d="M104 194C106.209 194 108 192.433 108 190.5C108 188.567 106.209 187 104 187C101.791 187 100 188.567 100 190.5C100 192.433 101.791 194 104 194Z" fill="#EEEEEE"/>
<path d="M118.5 194C120.433 194 122 192.433 122 190.5C122 188.567 120.433 187 118.5 187C116.567 187 115 188.567 115 190.5C115 192.433 116.567 194 118.5 194Z" fill="#EEEEEE"/>
<path d="M132.5 194C134.433 194 136 192.433 136 190.5C136 188.567 134.433 187 132.5 187C130.567 187 129 188.567 129 190.5C129 192.433 130.567 194 132.5 194Z" fill="#EEEEEE"/>
<path d="M147.5 194C149.433 194 151 192.433 151 190.5C151 188.567 149.433 187 147.5 187C145.567 187 144 188.567 144 190.5C144 192.433 145.567 194 147.5 194Z" fill="#EEEEEE"/>
<path d="M161.5 194C163.433 194 165 192.433 165 190.5C165 188.567 163.433 187 161.5 187C159.567 187 158 188.567 158 190.5C158 192.433 159.567 194 161.5 194Z" fill="#EEEEEE"/>
<path d="M175.5 194C177.433 194 179 192.433 179 190.5C179 188.567 177.433 187 175.5 187C173.567 187 172 188.567 172 190.5C172 192.433 173.567 194 175.5 194Z" fill="#EEEEEE"/>
<path d="M190.5 194C192.433 194 194 192.433 194 190.5C194 188.567 192.433 187 190.5 187C188.567 187 187 188.567 187 190.5C187 192.433 188.567 194 190.5 194Z" fill="#EEEEEE"/>
<path d="M204.5 194C206.433 194 208 192.433 208 190.5C208 188.567 206.433 187 204.5 187C202.567 187 201 188.567 201 190.5C201 192.433 202.567 194 204.5 194Z" fill="#EEEEEE"/>
<path d="M3.5 208C5.433 208 7 206.433 7 204.5C7 202.567 5.433 201 3.5 201C1.567 201 0 202.567 0 204.5C0 206.433 1.567 208 3.5 208Z" fill="#EEEEEE"/>
<path d="M18 208C20.2091 208 22 206.433 22 204.5C22 202.567 20.2091 201 18 201C15.7909 201 14 202.567 14 204.5C14 206.433 15.7909 208 18 208Z" fill="#EEEEEE"/>
<path d="M32.5 208C34.433 208 36 206.433 36 204.5C36 202.567 34.433 201 32.5 201C30.567 201 29 202.567 29 204.5C29 206.433 30.567 208 32.5 208Z" fill="#EEEEEE"/>
<path d="M46.5 208C48.433 208 50 206.433 50 204.5C50 202.567 48.433 201 46.5 201C44.567 201 43 202.567 43 204.5C43 206.433 44.567 208 46.5 208Z" fill="#EEEEEE"/>
<path d="M61 208C63.2091 208 65 206.433 65 204.5C65 202.567 63.2091 201 61 201C58.7909 201 57 202.567 57 204.5C57 206.433 58.7909 208 61 208Z" fill="#EEEEEE"/>
<path d="M75.5 208C77.433 208 79 206.433 79 204.5C79 202.567 77.433 201 75.5 201C73.567 201 72 202.567 72 204.5C72 206.433 73.567 208 75.5 208Z" fill="#EEEEEE"/>
<path d="M89.5 208C91.433 208 93 206.433 93 204.5C93 202.567 91.433 201 89.5 201C87.567 201 86 202.567 86 204.5C86 206.433 87.567 208 89.5 208Z" fill="#EEEEEE"/>
<path d="M104 208C106.209 208 108 206.433 108 204.5C108 202.567 106.209 201 104 201C101.791 201 100 202.567 100 204.5C100 206.433 101.791 208 104 208Z" fill="#EEEEEE"/>
<path d="M118.5 208C120.433 208 122 206.433 122 204.5C122 202.567 120.433 201 118.5 201C116.567 201 115 202.567 115 204.5C115 206.433 116.567 208 118.5 208Z" fill="#EEEEEE"/>
<path d="M132.5 208C134.433 208 136 206.433 136 204.5C136 202.567 134.433 201 132.5 201C130.567 201 129 202.567 129 204.5C129 206.433 130.567 208 132.5 208Z" fill="#EEEEEE"/>
<path d="M147.5 208C149.433 208 151 206.433 151 204.5C151 202.567 149.433 201 147.5 201C145.567 201 144 202.567 144 204.5C144 206.433 145.567 208 147.5 208Z" fill="#EEEEEE"/>
<path d="M161.5 208C163.433 208 165 206.433 165 204.5C165 202.567 163.433 201 161.5 201C159.567 201 158 202.567 158 204.5C158 206.433 159.567 208 161.5 208Z" fill="#EEEEEE"/>
<path d="M175.5 208C177.433 208 179 206.433 179 204.5C179 202.567 177.433 201 175.5 201C173.567 201 172 202.567 172 204.5C172 206.433 173.567 208 175.5 208Z" fill="#EEEEEE"/>
<path d="M190.5 208C192.433 208 194 206.433 194 204.5C194 202.567 192.433 201 190.5 201C188.567 201 187 202.567 187 204.5C187 206.433 188.567 208 190.5 208Z" fill="#EEEEEE"/>
<path d="M204.5 208C206.433 208 208 206.433 208 204.5C208 202.567 206.433 201 204.5 201C202.567 201 201 202.567 201 204.5C201 206.433 202.567 208 204.5 208Z" fill="#EEEEEE"/>
<path d="M3.5 222C5.433 222 7 220.433 7 218.5C7 216.567 5.433 215 3.5 215C1.567 215 0 216.567 0 218.5C0 220.433 1.567 222 3.5 222Z" fill="#EEEEEE"/>
<path d="M18 222C20.2091 222 22 220.433 22 218.5C22 216.567 20.2091 215 18 215C15.7909 215 14 216.567 14 218.5C14 220.433 15.7909 222 18 222Z" fill="#EEEEEE"/>
<path d="M32.5 222C34.433 222 36 220.433 36 218.5C36 216.567 34.433 215 32.5 215C30.567 215 29 216.567 29 218.5C29 220.433 30.567 222 32.5 222Z" fill="#EEEEEE"/>
<path d="M46.5 222C48.433 222 50 220.433 50 218.5C50 216.567 48.433 215 46.5 215C44.567 215 43 216.567 43 218.5C43 220.433 44.567 222 46.5 222Z" fill="#EEEEEE"/>
<path d="M61 222C63.2091 222 65 220.433 65 218.5C65 216.567 63.2091 215 61 215C58.7909 215 57 216.567 57 218.5C57 220.433 58.7909 222 61 222Z" fill="#EEEEEE"/>
<path d="M75.5 222C77.433 222 79 220.433 79 218.5C79 216.567 77.433 215 75.5 215C73.567 215 72 216.567 72 218.5C72 220.433 73.567 222 75.5 222Z" fill="#EEEEEE"/>
<path d="M89.5 222C91.433 222 93 220.433 93 218.5C93 216.567 91.433 215 89.5 215C87.567 215 86 216.567 86 218.5C86 220.433 87.567 222 89.5 222Z" fill="#EEEEEE"/>
<path d="M104 222C106.209 222 108 220.433 108 218.5C108 216.567 106.209 215 104 215C101.791 215 100 216.567 100 218.5C100 220.433 101.791 222 104 222Z" fill="#EEEEEE"/>
<path d="M118.5 222C120.433 222 122 220.433 122 218.5C122 216.567 120.433 215 118.5 215C116.567 215 115 216.567 115 218.5C115 220.433 116.567 222 118.5 222Z" fill="#EEEEEE"/>
<path d="M132.5 222C134.433 222 136 220.433 136 218.5C136 216.567 134.433 215 132.5 215C130.567 215 129 216.567 129 218.5C129 220.433 130.567 222 132.5 222Z" fill="#EEEEEE"/>
<path d="M147.5 222C149.433 222 151 220.433 151 218.5C151 216.567 149.433 215 147.5 215C145.567 215 144 216.567 144 218.5C144 220.433 145.567 222 147.5 222Z" fill="#EEEEEE"/>
<path d="M161.5 222C163.433 222 165 220.433 165 218.5C165 216.567 163.433 215 161.5 215C159.567 215 158 216.567 158 218.5C158 220.433 159.567 222 161.5 222Z" fill="#EEEEEE"/>
<path d="M175.5 222C177.433 222 179 220.433 179 218.5C179 216.567 177.433 215 175.5 215C173.567 215 172 216.567 172 218.5C172 220.433 173.567 222 175.5 222Z" fill="#EEEEEE"/>
<path d="M190.5 222C192.433 222 194 220.433 194 218.5C194 216.567 192.433 215 190.5 215C188.567 215 187 216.567 187 218.5C187 220.433 188.567 222 190.5 222Z" fill="#EEEEEE"/>
<path d="M204.5 222C206.433 222 208 220.433 208 218.5C208 216.567 206.433 215 204.5 215C202.567 215 201 216.567 201 218.5C201 220.433 202.567 222 204.5 222Z" fill="#EEEEEE"/>
<path d="M3.5 237C5.433 237 7 235.433 7 233.5C7 231.567 5.433 230 3.5 230C1.567 230 0 231.567 0 233.5C0 235.433 1.567 237 3.5 237Z" fill="#EEEEEE"/>
<path d="M18 237C20.2091 237 22 235.433 22 233.5C22 231.567 20.2091 230 18 230C15.7909 230 14 231.567 14 233.5C14 235.433 15.7909 237 18 237Z" fill="#EEEEEE"/>
<path d="M32.5 237C34.433 237 36 235.433 36 233.5C36 231.567 34.433 230 32.5 230C30.567 230 29 231.567 29 233.5C29 235.433 30.567 237 32.5 237Z" fill="#EEEEEE"/>
<path d="M46.5 237C48.433 237 50 235.433 50 233.5C50 231.567 48.433 230 46.5 230C44.567 230 43 231.567 43 233.5C43 235.433 44.567 237 46.5 237Z" fill="#EEEEEE"/>
<path d="M61 237C63.2091 237 65 235.433 65 233.5C65 231.567 63.2091 230 61 230C58.7909 230 57 231.567 57 233.5C57 235.433 58.7909 237 61 237Z" fill="#EEEEEE"/>
<path d="M75.5 237C77.433 237 79 235.433 79 233.5C79 231.567 77.433 230 75.5 230C73.567 230 72 231.567 72 233.5C72 235.433 73.567 237 75.5 237Z" fill="#EEEEEE"/>
<path d="M89.5 237C91.433 237 93 235.433 93 233.5C93 231.567 91.433 230 89.5 230C87.567 230 86 231.567 86 233.5C86 235.433 87.567 237 89.5 237Z" fill="#EEEEEE"/>
<path d="M104 237C106.209 237 108 235.433 108 233.5C108 231.567 106.209 230 104 230C101.791 230 100 231.567 100 233.5C100 235.433 101.791 237 104 237Z" fill="#EEEEEE"/>
<path d="M118.5 237C120.433 237 122 235.433 122 233.5C122 231.567 120.433 230 118.5 230C116.567 230 115 231.567 115 233.5C115 235.433 116.567 237 118.5 237Z" fill="#EEEEEE"/>
<path d="M132.5 237C134.433 237 136 235.433 136 233.5C136 231.567 134.433 230 132.5 230C130.567 230 129 231.567 129 233.5C129 235.433 130.567 237 132.5 237Z" fill="#EEEEEE"/>
<path d="M147.5 237C149.433 237 151 235.433 151 233.5C151 231.567 149.433 230 147.5 230C145.567 230 144 231.567 144 233.5C144 235.433 145.567 237 147.5 237Z" fill="#EEEEEE"/>
<path d="M161.5 237C163.433 237 165 235.433 165 233.5C165 231.567 163.433 230 161.5 230C159.567 230 158 231.567 158 233.5C158 235.433 159.567 237 161.5 237Z" fill="#EEEEEE"/>
<path d="M175.5 237C177.433 237 179 235.433 179 233.5C179 231.567 177.433 230 175.5 230C173.567 230 172 231.567 172 233.5C172 235.433 173.567 237 175.5 237Z" fill="#EEEEEE"/>
<path d="M190.5 237C192.433 237 194 235.433 194 233.5C194 231.567 192.433 230 190.5 230C188.567 230 187 231.567 187 233.5C187 235.433 188.567 237 190.5 237Z" fill="#EEEEEE"/>
<path d="M204.5 237C206.433 237 208 235.433 208 233.5C208 231.567 206.433 230 204.5 230C202.567 230 201 231.567 201 233.5C201 235.433 202.567 237 204.5 237Z" fill="#EEEEEE"/>
<path d="M3.5 251C5.433 251 7 249.433 7 247.5C7 245.567 5.433 244 3.5 244C1.567 244 0 245.567 0 247.5C0 249.433 1.567 251 3.5 251Z" fill="#EEEEEE"/>
<path d="M18 251C20.2091 251 22 249.433 22 247.5C22 245.567 20.2091 244 18 244C15.7909 244 14 245.567 14 247.5C14 249.433 15.7909 251 18 251Z" fill="#EEEEEE"/>
<path d="M32.5 251C34.433 251 36 249.433 36 247.5C36 245.567 34.433 244 32.5 244C30.567 244 29 245.567 29 247.5C29 249.433 30.567 251 32.5 251Z" fill="#EEEEEE"/>
<path d="M46.5 251C48.433 251 50 249.433 50 247.5C50 245.567 48.433 244 46.5 244C44.567 244 43 245.567 43 247.5C43 249.433 44.567 251 46.5 251Z" fill="#EEEEEE"/>
<path d="M61 251C63.2091 251 65 249.433 65 247.5C65 245.567 63.2091 244 61 244C58.7909 244 57 245.567 57 247.5C57 249.433 58.7909 251 61 251Z" fill="#EEEEEE"/>
<path d="M75.5 251C77.433 251 79 249.433 79 247.5C79 245.567 77.433 244 75.5 244C73.567 244 72 245.567 72 247.5C72 249.433 73.567 251 75.5 251Z" fill="#EEEEEE"/>
<path d="M89.5 251C91.433 251 93 249.433 93 247.5C93 245.567 91.433 244 89.5 244C87.567 244 86 245.567 86 247.5C86 249.433 87.567 251 89.5 251Z" fill="#EEEEEE"/>
<path d="M104 251C106.209 251 108 249.433 108 247.5C108 245.567 106.209 244 104 244C101.791 244 100 245.567 100 247.5C100 249.433 101.791 251 104 251Z" fill="#EEEEEE"/>
<path d="M118.5 251C120.433 251 122 249.433 122 247.5C122 245.567 120.433 244 118.5 244C116.567 244 115 245.567 115 247.5C115 249.433 116.567 251 118.5 251Z" fill="#EEEEEE"/>
<path d="M132.5 251C134.433 251 136 249.433 136 247.5C136 245.567 134.433 244 132.5 244C130.567 244 129 245.567 129 247.5C129 249.433 130.567 251 132.5 251Z" fill="#EEEEEE"/>
<path d="M147.5 251C149.433 251 151 249.433 151 247.5C151 245.567 149.433 244 147.5 244C145.567 244 144 245.567 144 247.5C144 249.433 145.567 251 147.5 251Z" fill="#EEEEEE"/>
<path d="M161.5 251C163.433 251 165 249.433 165 247.5C165 245.567 163.433 244 161.5 244C159.567 244 158 245.567 158 247.5C158 249.433 159.567 251 161.5 251Z" fill="#EEEEEE"/>
<path d="M175.5 251C177.433 251 179 249.433 179 247.5C179 245.567 177.433 244 175.5 244C173.567 244 172 245.567 172 247.5C172 249.433 173.567 251 175.5 251Z" fill="#EEEEEE"/>
<path d="M190.5 251C192.433 251 194 249.433 194 247.5C194 245.567 192.433 244 190.5 244C188.567 244 187 245.567 187 247.5C187 249.433 188.567 251 190.5 251Z" fill="#EEEEEE"/>
<path d="M204.5 251C206.433 251 208 249.433 208 247.5C208 245.567 206.433 244 204.5 244C202.567 244 201 245.567 201 247.5C201 249.433 202.567 251 204.5 251Z" fill="#EEEEEE"/>
</svg>
